<?xml version="1.0" encoding="utf-8"?>
<!-- Generator: Adobe Illustrator 24.0.1, SVG Export Plug-In . SVG Version: 6.00 Build 0)  -->
<svg version="1.1" id="レイヤー_1" xmlns="http://www.w3.org/2000/svg" xmlns:xlink="http://www.w3.org/1999/xlink" x="0px"
	 y="0px" width="202.8px" height="322.3px" viewBox="0 0 202.8 322.3" style="enable-background:new 0 0 202.8 322.3;"
	 xml:space="preserve">
<style type="text/css">
	.st0{fill:#CBE6C3;stroke:#000000;stroke-width:8;stroke-miterlimit:10;}
	.st1{fill:none;stroke:#000000;stroke-width:8;stroke-linecap:round;stroke-linejoin:round;stroke-miterlimit:10;}
	.st2{fill:#EDBCB0;}
	.st3{fill:#FFFFFF;stroke:#000000;stroke-width:8;stroke-linecap:round;stroke-linejoin:round;stroke-miterlimit:10;}
	.st4{fill:#6BD9B9;stroke:#000000;stroke-width:8;stroke-miterlimit:10;}
	.st5{fill:none;stroke:#000000;stroke-width:8;stroke-miterlimit:10;}
	.st6{fill:#93CF9A;stroke:#000000;stroke-width:8;stroke-miterlimit:10;}
</style>
<path class="st0" d="M55.9,148.4v20.7v17.6c0,1.1,0.1,2.2,0.2,3.4c1.4,19.2,14.4,35.3,32,41.1c4.6,1.5,9.6,2.4,14.7,2.4
	c2,0,3.9-0.2,5.8-0.4c7.5-0.9,14.5-3.6,20.5-7.7C126.9,185.2,95.6,152.7,55.9,148.4z"/>
<g>
	<path class="st1" d="M55.9,148.4v20.7c29.9,4.3,52.8,30,52.8,61.1c0,1,0,2-0.1,3c7.5-0.9,14.5-3.6,20.5-7.7
		C126.9,185.2,95.6,152.7,55.9,148.4z"/>
	<path class="st1" d="M56.1,190.1c18.3,4.1,32.1,20.5,32.1,40.1c0,0.3,0,0.7-0.1,1c4.6,1.5,9.6,2.4,14.7,2.4c2,0,3.9-0.2,5.8-0.4
		c0-1,0.1-2,0.1-3c0-31.1-22.9-56.8-52.8-61.1v17.6C55.9,187.9,56,189,56.1,190.1z"/>
	<path class="st1" d="M56.1,190.1c1.4,19.2,14.4,35.3,32,41.1c0-0.3,0.1-0.7,0.1-1C88.2,210.7,74.4,194.3,56.1,190.1z"/>
</g>
<path class="st2" d="M119.9,14.1c-3.3-6-9.6-10.1-17-10.1c-7.5,0-14.1,4.3-17.2,10.6v0l-7.4-4.2v15.1c10.2,0,18.4,8.2,18.4,18.4
	c0,9.3-7,17.1-16,18.2c4,8.3,12.4,14,22.2,14h0c13.5,0,24.6-11.1,24.6-24.6V9.3L119.9,14.1z"/>
<line class="st3" x1="102.9" y1="76.2" x2="102.9" y2="169.2"/>
<g>
	<g>
		<ellipse transform="matrix(0.5736 -0.8192 0.8192 0.5736 -48.9927 109.7915)" class="st4" cx="81" cy="102" rx="15.3" ry="26.5"/>
	</g>
	<line class="st5" x1="59.3" y1="86.8" x2="102.7" y2="117.2"/>
</g>
<g>
	<g>
		
			<ellipse transform="matrix(0.8192 -0.5736 0.5736 0.8192 -48.6981 94.0148)" class="st4" cx="124.7" cy="124.2" rx="26.5" ry="15.3"/>
	</g>
	<line class="st5" x1="146.4" y1="109" x2="103" y2="139.4"/>
</g>
<path class="st5" d="M102.9,24.4l24.6-15.1v42.2c0,13.5-11.1,24.6-24.6,24.6h0c-9.5,0-17.9-5.5-21.9-13.5c-0.1-0.3,0-0.5,0.3-0.6
	c8.7-1.4,15.4-9,15.4-18.2c0-10-8-18.2-18-18.4c-0.2,0-0.4-0.2-0.4-0.4V10.4l36.9,20.9c7.4,4.2,12.4,12.2,12.4,21.3"/>
<path class="st5" d="M119.9,14.1c-3.3-6-9.6-10.1-17-10.1c-7.5,0-14.1,4.3-17.2,10.6"/>
<g>
	<path d="M0,282.7l13.8-13.8l2.6,2.6c0,0-9.1,9.1-11.2,11.2c2.1,2.1,11.7,11.7,11.7,11.7l-2.6,2.6L0,282.7z"/>
	<path d="M59,276h8.5v20.5H44.5v-12.7h10.8v3.7c0,0-4.8,0-7.1,0c0,1.7,0,3.5,0,5.3c2.7,0,12.9,0,15.6,0c0-2.6,0-10.5,0-13.1
		c-2.8,0-12.9,0-12.9,0V276h4.4c0-1.3,0-3.5,0-4.9c-2.6,0-9.2,0-9.2,0v-3.7H59V276z"/>
	<path d="M113.1,281c4.2,0,7.2,0,7.2,0v3.7c0,0-3,0-7.2,0v5.7h-3.7v-5.7c-2.7,0-5.6,0-8.3,0c0,3,0,8.8,0,8.8H88.3V281c0,0,6.4,0,9,0
		c0-5,0-8.5,0-10.1c-2.5,0-8.2,0-8.2,0v-3.7H101c0,0,0,7.8,0,13.8c2.7,0,5.7,0,8.3,0v-4.7h3.7V281z M97.3,284.7c-1.9,0-4.7,0-5.3,0
		c0,1.7,0,3.4,0,5.1c1.7,0,3.6,0,5.3,0C97.3,289,97.3,286.9,97.3,284.7z"/>
	<path d="M143.5,283c0,2.3,0,7.5,0,9.8c2.9,0,13.5,0,13.5,0v3.7h-17.3v-17.3h5.4v-13.4h3.7v13.4H159v3.7
		C159,283,146.4,283,143.5,283z M159.4,265.9c0,1.1-0.9,2-2,2c-1.1,0-2-0.8-2-2c0-1.1,0.8-2,2-2
		C158.5,263.9,159.4,264.8,159.4,265.9z M163.7,263.9c1.1,0,2,0.9,2,2c0,1.1-0.9,2-2,2c-1.1,0-2-0.8-2-2
		C161.7,264.8,162.6,263.9,163.7,263.9z"/>
	<path d="M189.5,281.4c2,0,5.2,0,5.2,0v3.7h-8.9v-21.7h3.7C189.5,263.4,189.5,278.4,189.5,281.4z M194.8,271.1h8v26.5h-3.7
		c0,0,0-19.6,0-22.8c-1.8,0-4.3,0-4.3,0V271.1z"/>
</g>
<g>
	<path d="M60.4,319.9v-9.5h2.1v2.9c0.6-0.6,1.3-0.8,2-0.8c1.8,0,3.5,1.4,3.5,3.7c0,2.2-1.4,3.8-3.6,3.8c-0.9,0-1.7-0.4-2-1h0v0.8
		H60.4z M65.9,316.3c0-0.9-0.7-1.8-1.8-1.8c-1,0-1.8,0.8-1.8,1.8c0,1,0.7,1.8,1.7,1.8C65.1,318.2,65.9,317.4,65.9,316.3z"/>
	<path d="M72.5,322.3l1.1-2.7l-2.6-6.7h2.3l1.4,4.1h0l1.4-4.1h2.3l-3.6,9.5H72.5z"/>
	<path d="M97,319.9v-3.8c0-1.1-0.4-1.5-1.1-1.5c-0.8,0-1.2,0.5-1.2,1.4v3.9h-2.1V316c0-0.9-0.3-1.4-1.1-1.4c-0.8,0-1.2,0.5-1.2,1.5
		v3.8h-2.1v-7.1h2v0.8h0c0.4-0.7,1-1,2-1c0.9,0,1.6,0.5,2,1.3c0.5-0.8,1.3-1.3,2.2-1.3c1.6,0,2.6,1,2.6,3v4.4H97z"/>
	<path d="M108.5,319.9v-0.8h0c-0.3,0.6-1.2,1-2.1,1c-2.1,0-3.6-1.6-3.6-3.8c0-2.1,1.5-3.8,3.6-3.8c0.9,0,1.7,0.3,2.1,1h0v-0.8h2.1
		v7.1H108.5z M108.5,316.3c0-1-0.8-1.8-1.8-1.8c-1,0-1.7,0.8-1.7,1.8c0,1,0.8,1.8,1.8,1.8C107.7,318.2,108.5,317.4,108.5,316.3z"/>
	<path d="M119.2,319.9V316c0-1-0.3-1.4-1.1-1.4c-0.9,0-1.2,0.5-1.2,1.4v3.9h-2.1v-7.1h2v0.8h0c0.4-0.7,1.1-1,1.9-1
		c1.3,0,2.6,0.7,2.6,2.8v4.5H119.2z"/>
	<path d="M130.7,319.9v-0.8h0c-0.3,0.6-1.2,1-2.1,1c-2.1,0-3.6-1.6-3.6-3.8c0-2.1,1.5-3.8,3.6-3.8c0.9,0,1.7,0.3,2.1,1h0v-0.8h2.1
		v7.1H130.7z M130.7,316.3c0-1-0.8-1.8-1.8-1.8c-1,0-1.7,0.8-1.7,1.8c0,1,0.8,1.8,1.8,1.8C129.9,318.2,130.7,317.4,130.7,316.3z"/>
	<path d="M137,314.2l-0.4-3.8h2.2l-0.4,3.8H137z"/>
	<path d="M145.6,314.8c0-0.4-0.3-0.5-0.7-0.5c-0.4,0-0.6,0.2-0.6,0.5c0,0.4,0.3,0.6,1.3,0.8c1.7,0.4,2.2,1.1,2.2,2.2
		c0,1.5-1.3,2.4-2.9,2.4c-1.6,0-2.7-0.9-2.9-2.4h2.1c0.1,0.4,0.4,0.7,0.8,0.7c0.4,0,0.7-0.2,0.7-0.6c0-0.4-0.2-0.6-1.3-0.9
		c-1.8-0.6-2.3-1.3-2.3-2.1c0-1.4,1.3-2.3,2.7-2.3c1.5,0,2.6,0.8,2.7,2.2H145.6z"/>
</g>
<g>
	<g>
		<path d="M37.3,247.2c0.3,0.2,0.6,0.4,0.9,0.7c0.2,0.3,0.3,0.6,0.4,1c0,0.2,0,0.6,0,1H35c0,0.5,0.2,0.8,0.5,1
			c0.2,0.1,0.4,0.2,0.7,0.2c0.3,0,0.5-0.1,0.7-0.2c0.1-0.1,0.2-0.2,0.3-0.3h1.3c0,0.3-0.2,0.6-0.5,0.9c-0.4,0.5-1.1,0.7-1.9,0.7
			c-0.7,0-1.2-0.2-1.7-0.6c-0.5-0.4-0.8-1.1-0.8-2c0-0.9,0.2-1.5,0.7-2c0.5-0.5,1-0.7,1.8-0.7C36.6,247,37,247.1,37.3,247.2z
			 M35.4,248.3c-0.2,0.2-0.3,0.4-0.3,0.8h2.2c0-0.3-0.1-0.6-0.3-0.8c-0.2-0.2-0.5-0.3-0.8-0.3C35.8,248,35.6,248.1,35.4,248.3z"/>
		<path d="M42.3,247.2c0.2,0.1,0.4,0.3,0.6,0.5v-2.4h1.3v6.7h-1.3v-0.7c-0.2,0.3-0.4,0.5-0.6,0.6c-0.2,0.1-0.5,0.2-0.9,0.2
			c-0.6,0-1.1-0.2-1.5-0.7c-0.4-0.5-0.6-1.1-0.6-1.8c0-0.8,0.2-1.5,0.6-2c0.4-0.5,0.9-0.7,1.6-0.7C41.8,247,42.1,247.1,42.3,247.2z
			 M42.6,250.7c0.2-0.3,0.3-0.6,0.3-1.1c0-0.6-0.2-1-0.5-1.3c-0.2-0.2-0.4-0.2-0.7-0.2c-0.4,0-0.7,0.1-0.8,0.4s-0.3,0.6-0.3,1.1
			c0,0.5,0.1,0.8,0.3,1.1c0.2,0.3,0.5,0.4,0.8,0.4S42.4,251,42.6,250.7z"/>
		<path d="M47.2,246.5h-1.3v-1.2h1.3V246.5z M45.8,247.1h1.3v4.9h-1.3V247.1z"/>
		<path d="M53.1,247.7c0.4,0.5,0.6,1.1,0.6,1.8c0,0.8-0.2,1.4-0.5,1.9c-0.4,0.5-0.9,0.8-1.5,0.8c-0.4,0-0.7-0.1-1-0.2
			c-0.1-0.1-0.3-0.3-0.5-0.5v0.6h-1.3v-6.7h1.3v2.4c0.2-0.2,0.3-0.4,0.5-0.5c0.2-0.2,0.5-0.2,0.9-0.2
			C52.2,247,52.7,247.2,53.1,247.7z M52,250.7c0.2-0.3,0.3-0.6,0.3-1.1c0-0.4,0-0.6-0.1-0.9c-0.2-0.4-0.5-0.7-1-0.7
			c-0.5,0-0.8,0.2-1,0.6c-0.1,0.2-0.1,0.5-0.1,0.9c0,0.4,0.1,0.8,0.3,1.1c0.2,0.3,0.5,0.4,0.9,0.4C51.6,251.1,51.8,251,52,250.7z"/>
		<path d="M56.3,252H55v-6.7h1.3V252z"/>
		<path d="M61.2,247.2c0.3,0.2,0.6,0.4,0.9,0.7c0.2,0.3,0.3,0.6,0.4,1c0,0.2,0,0.6,0,1h-3.6c0,0.5,0.2,0.8,0.5,1
			c0.2,0.1,0.4,0.2,0.7,0.2c0.3,0,0.5-0.1,0.7-0.2c0.1-0.1,0.2-0.2,0.3-0.3h1.3c0,0.3-0.2,0.6-0.5,0.9c-0.4,0.5-1.1,0.7-1.9,0.7
			c-0.7,0-1.2-0.2-1.7-0.6c-0.5-0.4-0.8-1.1-0.8-2c0-0.9,0.2-1.5,0.7-2c0.5-0.5,1-0.7,1.8-0.7C60.5,247,60.9,247.1,61.2,247.2z
			 M59.3,248.3c-0.2,0.2-0.3,0.4-0.3,0.8h2.2c0-0.3-0.1-0.6-0.3-0.8c-0.2-0.2-0.5-0.3-0.8-0.3C59.8,248,59.5,248.1,59.3,248.3z"/>
		<path d="M68.7,245.3c0.1,0,0.2,0,0.3,0v1.1c-0.1,0-0.2,0-0.4,0c-0.2,0-0.3,0-0.4,0.1c-0.1,0.1-0.1,0.2-0.1,0.3c0,0.1,0,0.2,0,0.4
			H69v0.9h-0.8v4h-1.3v-4h-0.7v-0.9h0.7v-0.3c0-0.5,0.1-0.9,0.3-1.1c0.2-0.3,0.6-0.4,1.4-0.4C68.6,245.3,68.7,245.3,68.7,245.3z"/>
		<path d="M71.6,252h-1.3v-6.7h1.3V252z"/>
		<path d="M77.4,251.4c-0.4,0.5-1,0.8-1.9,0.8c-0.8,0-1.5-0.3-1.9-0.8c-0.4-0.5-0.6-1.1-0.6-1.9c0-0.7,0.2-1.3,0.6-1.8
			c0.4-0.5,1-0.8,1.9-0.8c0.8,0,1.5,0.3,1.9,0.8c0.4,0.5,0.6,1.1,0.6,1.8C78,250.3,77.8,250.9,77.4,251.4z M76.4,250.7
			c0.2-0.3,0.3-0.6,0.3-1.1s-0.1-0.9-0.3-1.1c-0.2-0.3-0.5-0.4-0.9-0.4c-0.4,0-0.7,0.1-0.9,0.4c-0.2,0.3-0.3,0.6-0.3,1.1
			s0.1,0.9,0.3,1.1c0.2,0.3,0.5,0.4,0.9,0.4C75.9,251.1,76.2,251,76.4,250.7z"/>
		<path d="M81.7,247.1H83l0.8,3.6l0.8-3.6h1.3l-1.4,4.9h-1.3l-0.8-3.6l-0.8,3.6h-1.3l-1.4-4.9h1.4l0.8,3.5L81.7,247.1z"/>
		<path d="M90.3,247.2c0.3,0.2,0.6,0.4,0.9,0.7c0.2,0.3,0.3,0.6,0.4,1c0,0.2,0,0.6,0,1H88c0,0.5,0.2,0.8,0.5,1
			c0.2,0.1,0.4,0.2,0.7,0.2c0.3,0,0.5-0.1,0.7-0.2c0.1-0.1,0.2-0.2,0.3-0.3h1.3c0,0.3-0.2,0.6-0.5,0.9c-0.4,0.5-1.1,0.7-1.9,0.7
			c-0.7,0-1.2-0.2-1.7-0.6c-0.5-0.4-0.8-1.1-0.8-2c0-0.9,0.2-1.5,0.7-2c0.5-0.5,1-0.7,1.8-0.7C89.6,247,89.9,247.1,90.3,247.2z
			 M88.4,248.3c-0.2,0.2-0.3,0.4-0.3,0.8h2.2c0-0.3-0.1-0.6-0.3-0.8c-0.2-0.2-0.5-0.3-0.8-0.3C88.8,248,88.5,248.1,88.4,248.3z"/>
		<path d="M95.4,247c0,0,0.1,0,0.1,0v1.3c-0.1,0-0.2,0-0.2,0c-0.1,0-0.1,0-0.2,0c-0.5,0-0.9,0.2-1,0.5c-0.1,0.2-0.1,0.5-0.1,0.9v2.4
			h-1.3v-4.9h1.2v0.9c0.2-0.3,0.4-0.6,0.5-0.7C94.7,247.1,95,247,95.4,247C95.4,247,95.4,247,95.4,247z"/>
		<path d="M100,249.3c0.2-0.3,0.5-0.6,1-0.9l0.1-0.1c-0.2-0.2-0.3-0.4-0.4-0.7c-0.1-0.2-0.2-0.5-0.2-0.7c0-0.5,0.2-0.9,0.5-1.1
			c0.3-0.3,0.8-0.4,1.3-0.4c0.5,0,0.9,0.1,1.2,0.4c0.3,0.3,0.5,0.6,0.5,1.1c0,0.4-0.1,0.7-0.3,1c-0.2,0.2-0.5,0.5-0.8,0.7l1,1.2
			c0.1-0.2,0.2-0.3,0.3-0.5c0.1-0.2,0.1-0.4,0.1-0.6h1.1c0,0.4-0.1,0.8-0.3,1.2c-0.1,0.2-0.3,0.5-0.5,0.8l1.2,1.4h-1.6l-0.5-0.6
			c-0.2,0.2-0.4,0.4-0.6,0.5c-0.3,0.2-0.7,0.3-1.2,0.3c-0.7,0-1.2-0.2-1.6-0.6c-0.4-0.4-0.6-0.8-0.6-1.3
			C99.7,249.9,99.8,249.5,100,249.3z M101.3,250.9c0.2,0.2,0.4,0.3,0.7,0.3c0.2,0,0.4,0,0.6-0.1c0.2-0.1,0.3-0.2,0.5-0.3l-1.2-1.5
			c-0.3,0.2-0.5,0.4-0.6,0.6c-0.1,0.2-0.2,0.3-0.2,0.5C101,250.5,101.1,250.7,101.3,250.9z M101.8,247.3c0.1,0.1,0.2,0.2,0.4,0.5
			c0.2-0.1,0.3-0.2,0.4-0.3c0.2-0.2,0.2-0.3,0.2-0.5c0-0.1,0-0.3-0.1-0.4c-0.1-0.1-0.2-0.2-0.4-0.2c-0.1,0-0.2,0-0.3,0.1
			c-0.2,0.1-0.2,0.2-0.2,0.4C101.7,247,101.7,247.2,101.8,247.3z"/>
		<path d="M111.3,246.5H110v-1.2h1.3V246.5z M110,247.1h1.3v4.9H110V247.1z"/>
		<path d="M117,247.4c0.3,0.3,0.5,0.7,0.5,1.3v3.3h-1.3v-3c0-0.3,0-0.5-0.1-0.6c-0.1-0.3-0.4-0.4-0.7-0.4c-0.4,0-0.7,0.2-0.9,0.6
			c-0.1,0.2-0.1,0.4-0.1,0.8v2.7H113v-4.9h1.2v0.7c0.2-0.3,0.3-0.4,0.5-0.5c0.3-0.2,0.6-0.3,1-0.3C116.3,247,116.7,247.1,117,247.4z
			"/>
		<path d="M118.6,248.1v-0.9h0.7v-1.4h1.3v1.4h0.8v0.9h-0.8v2.6c0,0.2,0,0.3,0.1,0.4c0.1,0.1,0.2,0.1,0.5,0.1c0,0,0.1,0,0.1,0
			c0,0,0.1,0,0.1,0v1l-0.6,0c-0.6,0-1-0.1-1.2-0.3c-0.1-0.1-0.2-0.4-0.2-0.7v-3H118.6z"/>
		<path d="M125.9,247.2c0.3,0.2,0.6,0.4,0.9,0.7c0.2,0.3,0.3,0.6,0.4,1c0,0.2,0,0.6,0,1h-3.6c0,0.5,0.2,0.8,0.5,1
			c0.2,0.1,0.4,0.2,0.7,0.2c0.3,0,0.5-0.1,0.7-0.2c0.1-0.1,0.2-0.2,0.3-0.3h1.3c0,0.3-0.2,0.6-0.5,0.9c-0.4,0.5-1.1,0.7-1.9,0.7
			c-0.7,0-1.2-0.2-1.7-0.6c-0.5-0.4-0.8-1.1-0.8-2c0-0.9,0.2-1.5,0.7-2c0.5-0.5,1-0.7,1.8-0.7C125.2,247,125.6,247.1,125.9,247.2z
			 M124,248.3c-0.2,0.2-0.3,0.4-0.3,0.8h2.2c0-0.3-0.1-0.6-0.3-0.8c-0.2-0.2-0.5-0.3-0.8-0.3C124.4,248,124.2,248.1,124,248.3z"/>
		<path d="M131.1,247c0,0,0.1,0,0.1,0v1.3c-0.1,0-0.2,0-0.2,0c-0.1,0-0.1,0-0.2,0c-0.5,0-0.9,0.2-1,0.5c-0.1,0.2-0.1,0.5-0.1,0.9
			v2.4h-1.3v-4.9h1.2v0.9c0.2-0.3,0.4-0.6,0.5-0.7C130.3,247.1,130.6,247,131.1,247C131,247,131,247,131.1,247z"/>
		<path d="M133.7,246.5h-1.3v-1.2h1.3V246.5z M132.4,247.1h1.3v4.9h-1.3V247.1z"/>
		<path d="M139.5,251.4c-0.4,0.5-1,0.8-1.9,0.8c-0.8,0-1.5-0.3-1.9-0.8c-0.4-0.5-0.6-1.1-0.6-1.9c0-0.7,0.2-1.3,0.6-1.8
			c0.4-0.5,1-0.8,1.9-0.8c0.8,0,1.5,0.3,1.9,0.8c0.4,0.5,0.6,1.1,0.6,1.8C140.2,250.3,140,250.9,139.5,251.4z M138.5,250.7
			c0.2-0.3,0.3-0.6,0.3-1.1s-0.1-0.9-0.3-1.1c-0.2-0.3-0.5-0.4-0.9-0.4c-0.4,0-0.7,0.1-0.9,0.4c-0.2,0.3-0.3,0.6-0.3,1.1
			s0.1,0.9,0.3,1.1c0.2,0.3,0.5,0.4,0.9,0.4C138,251.1,138.3,251,138.5,250.7z"/>
		<path d="M144.3,247c0,0,0.1,0,0.1,0v1.3c-0.1,0-0.2,0-0.2,0c-0.1,0-0.1,0-0.2,0c-0.5,0-0.9,0.2-1,0.5c-0.1,0.2-0.1,0.5-0.1,0.9
			v2.4h-1.3v-4.9h1.2v0.9c0.2-0.3,0.4-0.6,0.5-0.7C143.5,247.1,143.8,247,144.3,247C144.3,247,144.3,247,144.3,247z"/>
		<path d="M151.1,247.1c0.3,0.1,0.6,0.4,0.8,0.7v-0.7h1.3v4.7c0,0.6-0.1,1.1-0.3,1.4c-0.4,0.6-1.1,0.8-2.1,0.8
			c-0.6,0-1.1-0.1-1.5-0.4c-0.4-0.2-0.6-0.6-0.7-1.1h1.4c0,0.2,0.1,0.3,0.2,0.3c0.1,0.1,0.4,0.2,0.7,0.2c0.5,0,0.8-0.2,0.9-0.5
			c0.1-0.2,0.2-0.5,0.2-1v-0.3c-0.1,0.2-0.3,0.4-0.4,0.5c-0.3,0.2-0.6,0.3-1,0.3c-0.6,0-1.1-0.2-1.5-0.7s-0.6-1-0.6-1.8
			c0-0.7,0.2-1.3,0.5-1.8c0.4-0.5,0.9-0.7,1.6-0.7C150.7,247,150.9,247,151.1,247.1z M151.5,250.6c0.2-0.2,0.3-0.6,0.3-1.1
			c0-0.5-0.1-0.8-0.3-1.1c-0.2-0.2-0.5-0.4-0.8-0.4c-0.5,0-0.8,0.2-0.9,0.6c-0.1,0.2-0.1,0.5-0.1,0.8c0,0.3,0,0.5,0.1,0.8
			c0.2,0.4,0.5,0.6,0.9,0.6C151.1,251,151.3,250.9,151.5,250.6z"/>
		<path d="M157.5,247c0,0,0.1,0,0.1,0v1.3c-0.1,0-0.2,0-0.2,0c-0.1,0-0.1,0-0.2,0c-0.5,0-0.9,0.2-1,0.5c-0.1,0.2-0.1,0.5-0.1,0.9
			v2.4h-1.3v-4.9h1.2v0.9c0.2-0.3,0.4-0.6,0.5-0.7C156.8,247.1,157.1,247,157.5,247C157.5,247,157.5,247,157.5,247z"/>
		<path d="M162.1,247.2c0.3,0.2,0.6,0.4,0.9,0.7c0.2,0.3,0.3,0.6,0.4,1c0,0.2,0,0.6,0,1h-3.6c0,0.5,0.2,0.8,0.5,1
			c0.2,0.1,0.4,0.2,0.7,0.2c0.3,0,0.5-0.1,0.7-0.2c0.1-0.1,0.2-0.2,0.3-0.3h1.3c0,0.3-0.2,0.6-0.5,0.9c-0.4,0.5-1.1,0.7-1.9,0.7
			c-0.7,0-1.2-0.2-1.7-0.6c-0.5-0.4-0.8-1.1-0.8-2c0-0.9,0.2-1.5,0.7-2c0.5-0.5,1-0.7,1.8-0.7C161.3,247,161.7,247.1,162.1,247.2z
			 M160.1,248.3c-0.2,0.2-0.3,0.4-0.3,0.8h2.2c0-0.3-0.1-0.6-0.3-0.8c-0.2-0.2-0.5-0.3-0.8-0.3C160.6,248,160.3,248.1,160.1,248.3z"
			/>
		<path d="M167.7,247.2c0.3,0.2,0.6,0.4,0.9,0.7c0.2,0.3,0.3,0.6,0.4,1c0,0.2,0,0.6,0,1h-3.6c0,0.5,0.2,0.8,0.5,1
			c0.2,0.1,0.4,0.2,0.7,0.2c0.3,0,0.5-0.1,0.7-0.2c0.1-0.1,0.2-0.2,0.3-0.3h1.3c0,0.3-0.2,0.6-0.5,0.9c-0.4,0.5-1.1,0.7-1.9,0.7
			c-0.7,0-1.2-0.2-1.7-0.6c-0.5-0.4-0.8-1.1-0.8-2c0-0.9,0.2-1.5,0.7-2c0.5-0.5,1-0.7,1.8-0.7C167,247,167.3,247.1,167.7,247.2z
			 M165.8,248.3c-0.2,0.2-0.3,0.4-0.3,0.8h2.2c0-0.3-0.1-0.6-0.3-0.8c-0.2-0.2-0.5-0.3-0.8-0.3C166.2,248,165.9,248.1,165.8,248.3z"
			/>
		<path d="M174.1,247.4c0.3,0.3,0.5,0.7,0.5,1.3v3.3h-1.3v-3c0-0.3,0-0.5-0.1-0.6c-0.1-0.3-0.4-0.4-0.7-0.4c-0.4,0-0.7,0.2-0.9,0.6
			c-0.1,0.2-0.1,0.4-0.1,0.8v2.7h-1.3v-4.9h1.2v0.7c0.2-0.3,0.3-0.4,0.5-0.5c0.3-0.2,0.6-0.3,1-0.3
			C173.3,247,173.7,247.1,174.1,247.4z"/>
	</g>
</g>
<path class="st6" d="M76.5,225.5c6,4.1,13,6.8,20.5,7.7c1.9,0.2,3.9,0.4,5.8,0.4c5.1,0,10.1-0.9,14.7-2.4
	c17.6-5.8,30.6-21.9,32-41.1c0.1-1.1,0.2-2.2,0.2-3.4v-17.6v-20.7C110,152.7,78.7,185.2,76.5,225.5z"/>
<g>
	<path class="st1" d="M96.9,230.3c0-31.1,22.9-56.8,52.8-61.1v-20.7c-39.7,4.3-71,36.8-73.2,77.1c6,4.1,13,6.8,20.5,7.7
		C96.9,232.3,96.9,231.3,96.9,230.3z"/>
	<path class="st1" d="M96.9,230.3c0,1,0,2,0.1,3c1.9,0.2,3.9,0.4,5.8,0.4c5.1,0,10.1-0.9,14.7-2.4c0-0.3-0.1-0.7-0.1-1
		c0-19.6,13.7-36,32.1-40.1c0.1-1.1,0.2-2.2,0.2-3.4v-17.6C119.8,173.5,96.9,199.2,96.9,230.3z"/>
	<path class="st1" d="M149.5,190.1c-18.3,4.1-32.1,20.5-32.1,40.1c0,0.3,0,0.7,0.1,1C135.2,225.4,148.2,209.4,149.5,190.1z"/>
</g>
</svg>
